<svg xmlns="http://www.w3.org/2000/svg" viewBox="84.518 207.449 323.415 72.5"><defs><linearGradient id="gradient1" x1=".5" x2=".5" y1="0" y2="1" gradientUnits="userSpaceOnUse"><stop offset="0" stop-color="#d22929" stop-opacity="1"/><stop offset="1" stop-color="#b71717" stop-opacity="1"/></linearGradient><linearGradient id="gradient3" x1=".5" x2=".5" y1="0" y2="1" gradientUnits="userSpaceOnUse"><stop offset="0" stop-color="#e7762e" stop-opacity="1"/><stop offset="1" stop-color="#e7562e" stop-opacity="1"/></linearGradient></defs><g fill="none" fill-rule="evenodd" stroke="#000" stroke-linecap="square" stroke-linejoin="bevel" stroke-width="1"><g fill="url(#gradient1)" stroke="none" transform="matrix(1, 0, 0, 1, 76.517509, 185.948853) matrix(1,0,0,-1,8,141.612)"><path fill-rule="evenodd" d="M3.281,67.7844 L3.25585,71.4179 L34.7291,71.4179 L34.7291,48.694 L3.281,67.7844" vector-effect="none"/></g><g fill="url(#gradient2)" stroke="none" transform="matrix(1, 0, 0, 1, 76.517509, 185.948853) matrix(1,0,0,1,8,21.5)"><path fill-rule="evenodd" d="M1.50233,0 C0.672618,0 -6.34784e-15,0.673057 -4.66645e-15,1.50357 L8.86812e-14,47.6119 C0.0903997,49.1366 0.0127042,50.7263 4.86812,53.3285 C4.86812,53.3285 0.11048,48.7194 7.59699,48.694 L60.7759,48.694 L60.7759,0 L1.50233,0" vector-effect="none" style="fill:#d80027"/></g><g fill="url(#gradient3)" stroke="none" transform="matrix(1, 0, 0, 1, 76.517509, 185.948853) matrix(1,0,0,1,8,21.5)"><path fill-rule="evenodd" d="M246.36,7.10543e-15 L246.36,54.1045 C246.641,56.2625 247.032,57.4174 247.445,58.4328 C248.597,58.7274 249.543,59.0549 250.701,59.5149 C251.76,59.0549 252.69,58.7274 253.957,58.4328 C254.19,57.4174 254.565,56.2625 255.042,54.1045 L255.042,7.10543e-15 L268.065,7.10543e-15 L268.065,54.1045 C268.065,60.5029 266.598,65.088 263.724,68.1716 C260.728,71.0176 256.391,72.5 250.701,72.5 C239.108,72.5 233.336,66.4325 233.336,54.1045 L233.336,7.10543e-15 L246.36,7.10543e-15 M107.443,-2.84217e-14 L107.443,12.9851 L88.9933,12.9851 L88.9933,28.1343 L105.273,28.1343 L105.273,42.2015 L88.9933,42.2015 L88.9933,71.4179 L75.9699,71.4179 L75.9699,-2.84217e-14 L107.443,-2.84217e-14 M124.808,-2.84217e-14 L124.808,58.4328 L143.258,58.4328 L143.258,71.4179 L111.784,71.4179 L111.784,-2.84217e-14 L124.808,-2.84217e-14 M175.816,-2.84217e-14 L188.839,71.4179 L174.731,71.4179 L172.56,57.3507 L162.793,57.3507 L160.622,71.4179 L146.513,71.4179 L159.537,-2.84217e-14 L175.816,-2.84217e-14 M209.46,0 C212.338,0 214.943,0.359138 217.057,1.08209 C219.691,1.79571 221.735,2.99284 223.569,4.32836 C225.164,6.34485 226.5,8.53388 227.91,10.8209 C228.412,13.9381 228.89,17.2388 228.995,21.6418 C228.89,25.995 228.264,29.9627 226.824,33.5448 C225.758,36.1194 223.846,38.5821 221.398,40.0373 L231.166,71.4179 L217.057,71.4179 L209.46,43.2836 L206.204,43.2836 L206.204,71.4179 L193.181,71.4179 L193.181,0 L209.46,0 M287.6,-2.84217e-14 L294.112,19.4776 L298.453,33.5448 L299.538,33.5448 L303.88,18.3955 L310.391,-2.84217e-14 L323.415,-2.84217e-14 L323.415,71.4179 L310.391,71.4179 L310.391,37.8731 L309.306,37.8731 L306.05,48.694 L303.88,57.3507 L294.112,57.3507 L291.941,48.694 L288.686,37.8731 L287.6,37.8731 L287.6,71.4179 L274.577,71.4179 L274.577,-2.84217e-14 L287.6,-2.84217e-14 M168.219,18.3955 L166.048,32.4627 L164.963,44.3657 L171.475,44.3657 L170.39,32.4627 L168.219,18.3955 M208.375,12.9851 L206.204,12.9851 L206.204,30.2985 L208.375,30.2985 C209.391,30.2985 210.351,30.1753 211.63,30.2985 C212.133,29.6827 212.938,29.2076 213.801,28.1343 C214.378,27.8 214.943,26.8675 214.886,25.9701 C215.766,24.545 215.972,23.0142 215.972,21.6418 C215.972,18.2987 215.303,16.2401 213.801,15.1493 C212.63,13.6361 210.899,12.9851 208.375,12.9851" vector-effect="none"/></g></g><polygon style="fill:#ffda44" points="115.127 217.504 118.206 226.979 128.173 226.979 120.108 232.837 123.187 242.314 115.127 236.458 107.067 242.314 110.146 232.837 102.081 226.979 112.048 226.979"/></svg>